<svg width="78" height="74" fill="none" xmlns="http://www.w3.org/2000/svg"><path d="M23.456 38.184c3.941.72 6.821 2.603 8.64 5.65 2.014 2.911 2.646 6.419 1.896 10.522-.81 4.432-2.932 7.691-6.368 9.777-3.241 1.953-7.325 2.479-12.251 1.579-5.748-1.05-9.859-4.091-12.333-9.123C.73 51.587.324 44.983 1.823 36.776c1.35-7.386 4.236-13.898 8.66-19.535C14.936 11.44 21.032 5.938 28.77.737c.194-.134.455-.172.784-.112.492.09.858.412 1.096.964.239.552.164.963-.225 1.231-9.545 6.737-15.338 15.686-17.377 26.848-.839 4.596-.633 8.11.62 10.544 1.927-2.192 5.19-2.868 9.788-2.028zm42.86 7.83c3.94.72 6.82 2.603 8.64 5.649 2.013 2.912 2.645 6.42 1.895 10.523-.81 4.432-2.932 7.69-6.368 9.777-3.24 1.952-7.325 2.478-12.251 1.578-5.748-1.05-9.858-4.09-12.333-9.122-2.31-5.002-2.716-11.606-1.217-19.813 1.35-7.386 4.236-13.898 8.66-19.536 4.453-5.8 10.549-11.302 18.287-16.504.194-.134.455-.171.784-.111.492.09.858.411 1.096.964.239.552.164.962-.224 1.23-9.546 6.738-15.338 15.687-17.377 26.848-.84 4.596-.633 8.11.619 10.545 1.927-2.192 5.19-2.868 9.788-2.029z" fill="#E8D3A2"/></svg>