<svg width="44" height="44" viewBox="0 0 44 44" fill="none" xmlns="http://www.w3.org/2000/svg">
<path d="M33.5726 7.8287C33.0584 7.8287 32.5557 7.98119 32.1281 8.26688C31.7006 8.55257 31.3673 8.95863 31.1705 9.43372C30.9737 9.90881 30.9222 10.4316 31.0226 10.9359C31.1229 11.4403 31.3705 11.9036 31.7341 12.2672C32.0977 12.6308 32.561 12.8784 33.0654 12.9787C33.5697 13.0791 34.0925 13.0276 34.5676 12.8308C35.0427 12.634 35.4487 12.3007 35.7344 11.8732C36.0201 11.4456 36.1726 10.9429 36.1726 10.4287C36.1726 9.73913 35.8987 9.07782 35.4111 8.59022C34.9235 8.10263 34.2622 7.8287 33.5726 7.8287ZM43.5393 13.072C43.4971 11.2743 43.1604 9.49574 42.5426 7.80703C41.9917 6.36215 41.1342 5.0538 40.0293 3.97203C38.9564 2.86145 37.645 2.00941 36.1943 1.48036C34.51 0.843713 32.7294 0.49932 30.9293 0.462031C28.6326 0.332031 27.8959 0.332031 22.0026 0.332031C16.1093 0.332031 15.3726 0.332031 13.0759 0.462031C11.2758 0.49932 9.49518 0.843713 7.81094 1.48036C6.3629 2.01477 5.05263 2.86608 3.97594 3.97203C2.86536 5.04492 2.01332 6.35632 1.48427 7.80703C0.847619 9.49127 0.503226 11.2719 0.465937 13.072C0.335937 15.3687 0.335938 16.1054 0.335938 21.9987C0.335938 27.892 0.335937 28.6287 0.465937 30.9254C0.503226 32.7255 0.847619 34.5061 1.48427 36.1904C2.01332 37.6411 2.86536 38.9525 3.97594 40.0254C5.05263 41.1313 6.3629 41.9826 7.81094 42.517C9.49518 43.1537 11.2758 43.4981 13.0759 43.5354C15.3726 43.6654 16.1093 43.6654 22.0026 43.6654C27.8959 43.6654 28.6326 43.6654 30.9293 43.5354C32.7294 43.4981 34.51 43.1537 36.1943 42.517C37.645 41.988 38.9564 41.1359 40.0293 40.0254C41.1391 38.9476 41.9973 37.6381 42.5426 36.1904C43.1604 34.5017 43.4971 32.7231 43.5393 30.9254C43.5393 28.6287 43.6693 27.892 43.6693 21.9987C43.6693 16.1054 43.6693 15.3687 43.5393 13.072ZM39.6393 30.6654C39.6235 32.0407 39.3744 33.4034 38.9026 34.6954C38.5567 35.6383 38.001 36.4903 37.2776 37.187C36.5748 37.9031 35.7246 38.4576 34.7859 38.812C33.494 39.2838 32.1313 39.5329 30.7559 39.5487C28.5893 39.657 27.7876 39.6787 22.0893 39.6787C16.3909 39.6787 15.5893 39.6787 13.4226 39.5487C11.9945 39.5754 10.5726 39.3555 9.21927 38.8987C8.3218 38.5262 7.51054 37.9731 6.83594 37.2737C6.1168 36.5777 5.5681 35.7249 5.23261 34.782C4.70363 33.4715 4.41023 32.0779 4.36594 30.6654C4.36594 28.4987 4.23594 27.697 4.23594 21.9987C4.23594 16.3004 4.23594 15.4987 4.36594 13.332C4.37565 11.926 4.63233 10.5326 5.12427 9.21536C5.50571 8.30084 6.09118 7.48562 6.83594 6.83203C7.4942 6.08706 8.30773 5.49541 9.21927 5.0987C10.54 4.62213 11.9319 4.37304 13.3359 4.36203C15.5026 4.36203 16.3043 4.23203 22.0026 4.23203C27.7009 4.23203 28.5026 4.23203 30.6693 4.36203C32.0446 4.37781 33.4073 4.6269 34.6993 5.0987C35.6839 5.46411 36.5676 6.0582 37.2776 6.83203C37.9876 7.49758 38.5424 8.31129 38.9026 9.21536C39.3842 10.5347 39.6334 11.9276 39.6393 13.332C39.7476 15.4987 39.7693 16.3004 39.7693 21.9987C39.7693 27.697 39.7476 28.4987 39.6393 30.6654ZM22.0026 10.8837C19.8052 10.888 17.6584 11.5435 15.8334 12.7674C14.0084 13.9914 12.5871 15.7288 11.7491 17.7602C10.9112 19.7915 10.6942 22.0257 11.1255 24.1804C11.5568 26.335 12.6171 28.3135 14.1724 29.8658C15.7278 31.4181 17.7083 32.4746 19.8638 32.9017C22.0193 33.3288 24.2531 33.1074 26.2828 32.2655C28.3125 31.4236 30.0472 29.999 31.2676 28.1716C32.4879 26.3442 33.1393 24.1961 33.1393 21.9987C33.1421 20.5364 32.8559 19.088 32.297 17.7368C31.738 16.3855 30.9175 15.1581 29.8825 14.1251C28.8475 13.0922 27.6185 12.274 26.2662 11.7177C24.9138 11.1614 23.4649 10.878 22.0026 10.8837ZM22.0026 29.2137C20.5756 29.2137 19.1807 28.7905 17.9942 27.9978C16.8077 27.205 15.8829 26.0781 15.3368 24.7598C14.7907 23.4414 14.6478 21.9907 14.9262 20.5911C15.2046 19.1915 15.8918 17.906 16.9008 16.8969C17.9099 15.8879 19.1955 15.2007 20.595 14.9223C21.9946 14.6439 23.4453 14.7868 24.7637 15.3329C26.082 15.879 27.2089 16.8038 28.0017 17.9903C28.7945 19.1768 29.2176 20.5717 29.2176 21.9987C29.2176 22.9462 29.031 23.8844 28.6684 24.7598C28.3058 25.6351 27.7744 26.4305 27.1044 27.1005C26.4344 27.7704 25.639 28.3019 24.7637 28.6645C23.8883 29.0271 22.9501 29.2137 22.0026 29.2137Z" fill="white"/>
</svg>
